<svg xmlns="http://www.w3.org/2000/svg" version="1.1" xmlns:xlink="http://www.w3.org/1999/xlink" xmlns:svgjs="http://svgjs.dev/svgjs" width="750" height="515" viewBox="0 0 312 312" class="svg-animations " style="background: rgb(48, 28, 57);"><svg viewBox="0 0 260.02825927734375 265" width="75" height="75" x="118.5" y="89.15105438232422" style="fill: rgb(160, 215, 255);"><svg xmlns="http://www.w3.org/2000/svg" viewBox="0 0 92 92"><path d="m52,0c-6.04,0-11,4.96-11,11,0,3.88,2.06,7.32,5.12,9.28l-5,15.72s-.08,0-.12,0c-4.14,0-7.9,1.7-10.62,4.44l-11.44-10c.67-1.34,1.06-2.85,1.06-4.44,0-5.49-4.51-10-10-10S0,20.51,0,26s4.51,10,10,10c1.73,0,3.36-.43,4.78-1.22l12.28,10.75c-.67,1.7-1.06,3.54-1.06,5.47,0,3.04.93,5.88,2.5,8.25l-10.44,10.44c-1.78-1.05-3.85-1.69-6.06-1.69-6.59,0-12,5.41-12,12s5.41,12,12,12,12-5.41,12-12c0-2.22-.62-4.3-1.69-6.09l10.41-10.41c2.38,1.58,5.23,2.5,8.28,2.5,2.73,0,5.29-.74,7.5-2.03l4.38,4.91c-1.19,1.76-1.88,3.86-1.88,6.12,0,6.04,4.96,11,11,11s11-4.96,11-11-4.96-11-11-11c-1.61,0-3.15.37-4.53,1l-4.47-5.03c1.88-2.51,3-5.61,3-8.97,0-1.04-.11-2.05-.31-3.03l20.38-6.25c1.66,2,4.16,3.28,6.94,3.28,4.93,0,9-4.07,9-9s-4.07-9-9-9-9,4.07-9,9c0,.03,0,.06,0,.09l-20.72,6.38c-1.57-2.24-3.75-4.07-6.28-5.19l4.88-15.28s.08,0,.12,0c6.04,0,11-4.96,11-11S58.04,0,52,0h0Zm0,6c2.8,0,5,2.2,5,5s-2.2,5-5,5-5-2.2-5-5,2.2-5,5-5ZM10,22c2.24,0,4,1.76,4,4s-1.76,4-4,4-4-1.76-4-4,1.76-4,4-4Zm73,11c1.69,0,3,1.31,3,3s-1.31,3-3,3-3-1.31-3-3,1.31-3,3-3Zm-42,9c5.01,0,9,3.99,9,9s-3.99,9-9,9-9-3.99-9-9,3.99-9,9-9Zm21,28c2.8,0,5,2.2,5,5s-2.2,5-5,5-5-2.2-5-5,2.2-5,5-5Zm-50,4c3.35,0,6,2.65,6,6s-2.65,6-6,6-6-2.65-6-6,2.65-6,6-6Z"></path></svg></svg><text fill="#a0d7ff" font-family="Expletus Sans" font-size="38px" x="85.31712341308594" y="203.23068258745616"><tspan dy="0" x="85.31712341308594">Cachtec</tspan></text><text fill="#bee4ff" font-family="Hind" font-size="19px" x="156" y="222.84894561767578"><tspan dy="0" x="156"></tspan></text></svg>